<mxfile host="app.diagrams.net" modified="2023-04-17T14:13:18.723Z" agent="Mozilla/5.0 (Macintosh; Intel Mac OS X 10_15_7) AppleWebKit/537.36 (KHTML, like Gecko) Chrome/112.0.0.0 Safari/537.36" etag="5VExwg2dEEraY2ta21qS" version="21.1.5" type="device">
  <diagram name="Page-1" id="bdfUV3-3_4sgYkOq1Ybx">
    <mxGraphModel dx="948" dy="634" grid="1" gridSize="10" guides="1" tooltips="1" connect="1" arrows="1" fold="1" page="1" pageScale="1" pageWidth="2336" pageHeight="1654" math="0" shadow="0">
      <root>
        <mxCell id="0" />
        <mxCell id="1" parent="0" />
        <mxCell id="vpwTU8w34U7y7d3ZhfgY-3" style="edgeStyle=orthogonalEdgeStyle;rounded=0;orthogonalLoop=1;jettySize=auto;html=1;exitX=1;exitY=0.5;exitDx=0;exitDy=0;" edge="1" parent="1" source="vpwTU8w34U7y7d3ZhfgY-1" target="vpwTU8w34U7y7d3ZhfgY-2">
          <mxGeometry relative="1" as="geometry" />
        </mxCell>
        <mxCell id="vpwTU8w34U7y7d3ZhfgY-1" value="Let&#39;s see if this works" style="rounded=1;whiteSpace=wrap;html=1;" vertex="1" parent="1">
          <mxGeometry x="360" y="210" width="210" height="150" as="geometry" />
        </mxCell>
        <mxCell id="vpwTU8w34U7y7d3ZhfgY-2" value="" style="ellipse;shape=cloud;whiteSpace=wrap;html=1;" vertex="1" parent="1">
          <mxGeometry x="720" y="245" width="120" height="80" as="geometry" />
        </mxCell>
        <mxCell id="vpwTU8w34U7y7d3ZhfgY-4" value="" style="ellipse;whiteSpace=wrap;html=1;" vertex="1" parent="1">
          <mxGeometry x="370" y="420" width="120" height="80" as="geometry" />
        </mxCell>
        <mxCell id="vpwTU8w34U7y7d3ZhfgY-5" value="" style="ellipse;whiteSpace=wrap;html=1;" vertex="1" parent="1">
          <mxGeometry x="560" y="430" width="120" height="80" as="geometry" />
        </mxCell>
        <mxCell id="vpwTU8w34U7y7d3ZhfgY-6" value="" style="rhombus;whiteSpace=wrap;html=1;" vertex="1" parent="1">
          <mxGeometry x="720" y="320" width="80" height="80" as="geometry" />
        </mxCell>
        <mxCell id="vpwTU8w34U7y7d3ZhfgY-7" value="Actor" style="shape=umlActor;verticalLabelPosition=bottom;verticalAlign=top;html=1;outlineConnect=0;" vertex="1" parent="1">
          <mxGeometry x="750" y="460" width="30" height="60" as="geometry" />
        </mxCell>
        <mxCell id="vpwTU8w34U7y7d3ZhfgY-8" value="" style="shape=cylinder3;whiteSpace=wrap;html=1;boundedLbl=1;backgroundOutline=1;size=15;" vertex="1" parent="1">
          <mxGeometry x="730" y="450" width="60" height="80" as="geometry" />
        </mxCell>
        <mxCell id="vpwTU8w34U7y7d3ZhfgY-9" value="" style="shape=trapezoid;perimeter=trapezoidPerimeter;whiteSpace=wrap;html=1;fixedSize=1;" vertex="1" parent="1">
          <mxGeometry x="200" y="350" width="120" height="60" as="geometry" />
        </mxCell>
        <mxCell id="vpwTU8w34U7y7d3ZhfgY-10" value="" style="shape=process;whiteSpace=wrap;html=1;backgroundOutline=1;" vertex="1" parent="1">
          <mxGeometry x="600" y="170" width="120" height="60" as="geometry" />
        </mxCell>
        <mxCell id="vpwTU8w34U7y7d3ZhfgY-11" value="" style="shape=step;perimeter=stepPerimeter;whiteSpace=wrap;html=1;fixedSize=1;" vertex="1" parent="1">
          <mxGeometry x="700" y="450" width="120" height="80" as="geometry" />
        </mxCell>
        <mxCell id="vpwTU8w34U7y7d3ZhfgY-12" value="" style="shape=step;perimeter=stepPerimeter;whiteSpace=wrap;html=1;fixedSize=1;" vertex="1" parent="1">
          <mxGeometry x="700" y="450" width="120" height="80" as="geometry" />
        </mxCell>
        <mxCell id="vpwTU8w34U7y7d3ZhfgY-13" value="" style="shape=step;perimeter=stepPerimeter;whiteSpace=wrap;html=1;fixedSize=1;" vertex="1" parent="1">
          <mxGeometry x="700" y="450" width="120" height="80" as="geometry" />
        </mxCell>
        <mxCell id="vpwTU8w34U7y7d3ZhfgY-14" value="" style="shape=step;perimeter=stepPerimeter;whiteSpace=wrap;html=1;fixedSize=1;" vertex="1" parent="1">
          <mxGeometry x="220" y="190" width="120" height="80" as="geometry" />
        </mxCell>
        <mxCell id="vpwTU8w34U7y7d3ZhfgY-15" value="" style="shape=callout;whiteSpace=wrap;html=1;perimeter=calloutPerimeter;" vertex="1" parent="1">
          <mxGeometry x="860" y="360" width="120" height="80" as="geometry" />
        </mxCell>
        <mxCell id="vpwTU8w34U7y7d3ZhfgY-16" value="" style="shape=dataStorage;whiteSpace=wrap;html=1;fixedSize=1;" vertex="1" parent="1">
          <mxGeometry x="230" y="470" width="100" height="80" as="geometry" />
        </mxCell>
        <mxCell id="vpwTU8w34U7y7d3ZhfgY-17" value="" style="shape=card;whiteSpace=wrap;html=1;" vertex="1" parent="1">
          <mxGeometry x="120" y="280" width="80" height="100" as="geometry" />
        </mxCell>
        <mxCell id="vpwTU8w34U7y7d3ZhfgY-18" value="" style="shape=or;whiteSpace=wrap;html=1;" vertex="1" parent="1">
          <mxGeometry x="470" y="90" width="60" height="80" as="geometry" />
        </mxCell>
        <mxCell id="vpwTU8w34U7y7d3ZhfgY-19" value="" style="shape=internalStorage;whiteSpace=wrap;html=1;backgroundOutline=1;" vertex="1" parent="1">
          <mxGeometry x="440" y="530" width="80" height="80" as="geometry" />
        </mxCell>
        <mxCell id="vpwTU8w34U7y7d3ZhfgY-20" value="" style="shape=cube;whiteSpace=wrap;html=1;boundedLbl=1;backgroundOutline=1;darkOpacity=0.05;darkOpacity2=0.1;" vertex="1" parent="1">
          <mxGeometry x="80" y="150" width="120" height="80" as="geometry" />
        </mxCell>
        <mxCell id="vpwTU8w34U7y7d3ZhfgY-21" value="List" style="swimlane;fontStyle=0;childLayout=stackLayout;horizontal=1;startSize=30;horizontalStack=0;resizeParent=1;resizeParentMax=0;resizeLast=0;collapsible=1;marginBottom=0;whiteSpace=wrap;html=1;" vertex="1" parent="1">
          <mxGeometry x="290" y="70" width="140" height="120" as="geometry" />
        </mxCell>
        <mxCell id="vpwTU8w34U7y7d3ZhfgY-22" value="Item 1" style="text;strokeColor=none;fillColor=none;align=left;verticalAlign=middle;spacingLeft=4;spacingRight=4;overflow=hidden;points=[[0,0.5],[1,0.5]];portConstraint=eastwest;rotatable=0;whiteSpace=wrap;html=1;" vertex="1" parent="vpwTU8w34U7y7d3ZhfgY-21">
          <mxGeometry y="30" width="140" height="30" as="geometry" />
        </mxCell>
        <mxCell id="vpwTU8w34U7y7d3ZhfgY-23" value="Item 2" style="text;strokeColor=none;fillColor=none;align=left;verticalAlign=middle;spacingLeft=4;spacingRight=4;overflow=hidden;points=[[0,0.5],[1,0.5]];portConstraint=eastwest;rotatable=0;whiteSpace=wrap;html=1;" vertex="1" parent="vpwTU8w34U7y7d3ZhfgY-21">
          <mxGeometry y="60" width="140" height="30" as="geometry" />
        </mxCell>
        <mxCell id="vpwTU8w34U7y7d3ZhfgY-24" value="Item 3" style="text;strokeColor=none;fillColor=none;align=left;verticalAlign=middle;spacingLeft=4;spacingRight=4;overflow=hidden;points=[[0,0.5],[1,0.5]];portConstraint=eastwest;rotatable=0;whiteSpace=wrap;html=1;" vertex="1" parent="vpwTU8w34U7y7d3ZhfgY-21">
          <mxGeometry y="90" width="140" height="30" as="geometry" />
        </mxCell>
        <mxCell id="vpwTU8w34U7y7d3ZhfgY-25" value="" style="triangle;whiteSpace=wrap;html=1;" vertex="1" parent="1">
          <mxGeometry x="570" y="70" width="60" height="80" as="geometry" />
        </mxCell>
        <mxCell id="vpwTU8w34U7y7d3ZhfgY-26" value="" style="shape=tape;whiteSpace=wrap;html=1;" vertex="1" parent="1">
          <mxGeometry x="90" y="430" width="120" height="100" as="geometry" />
        </mxCell>
        <mxCell id="vpwTU8w34U7y7d3ZhfgY-27" value="" style="rhombus;whiteSpace=wrap;html=1;strokeWidth=2;fillWeight=-1;hachureGap=8;fillStyle=cross-hatch;fillColor=#006600;sketch=1;" vertex="1" parent="1">
          <mxGeometry x="320" y="370" width="120" height="60" as="geometry" />
        </mxCell>
      </root>
    </mxGraphModel>
  </diagram>
</mxfile>
